<svg xmlns="http://www.w3.org/2000/svg" viewBox="0 0 31.842 10.8211" height="40.8985" width="120.3479"><defs><clipPath id="c"><path d="M14.176 826.824h566.652V14.172H14.176z"/></clipPath><clipPath id="d"><path d="M84.645 819.039h54.727v-58.703H84.645z"/></clipPath><clipPath id="a"><path d="M14.176 826.824h566.652V14.172H14.176z"/></clipPath><clipPath id="b"><path d="M64.746 827h28.855v-68.656H64.746z"/></clipPath></defs><g aria-label="Lu" style="-inkscape-font-specification:YanoneKaffeesatz-Bold" font-weight="700" font-size="14.7427" font-family="Yanone Kaffeesatz Bold" fill="#333" stroke-width=".3528"><path d="M1.6513 9.124H3.73v1.253q0 .177-.0885.236-.0737.0589-.2064.0589H.0001V.7649q0-.1475.0295-.236Q.059.4405.2065.411.3687.3668.7077.3668 1.0468.352 1.6513.352zM8.6393 10.2591q-.3538.2064-.9435.3833-.575.177-1.2384.177t-1.091-.1475q-.4275-.1474-.6929-.4275-.2506-.2949-.3538-.7077-.0885-.4128-.0885-.9288V3.5954q0-.1032.0148-.1622.0295-.0737.1916-.0884.1622-.0295.5013-.0295.3538-.0147 1.0025-.0147V8.711q0 .3391.0885.516.0884.177.398.177.1474 0 .2949-.0296.1474-.0442.2653-.1621v-5.617q0-.1032.0148-.1622.0295-.0737.1769-.0884.1622-.0295.4865-.0295.339-.0147.973-.0147z"/></g><g transform="matrix(.35278 0 0 -.35278 -15.438 283.5272)" clip-path="url(#a)" fill="#333"><g clip-path="url(#b)"><path d="M82.572 786.7826l5.4661-12.1358q.2006-.4513.2006-.702 0-.2508-.6018-.4013-.6017-.1002-1.9557-.1002h-3.9116l-1.003 2.407q-.5516 1.2538-1.1533 2.8585-.5517 1.6549-1.003 2.9587-.4012-1.3038-.9528-2.9086-.5015-1.6047-.9528-2.9085l-.5015-1.354q-.1504-.4012-.4513-.6018-.2508-.2006-.9027-.301-.652-.1002-1.8053-.1503h-3.059l5.8673 12.9381-5.1151 11.2332q-.1505.351-.1505.5015.0502.2006.6018.2507.5516.1003 1.8053.1003 1.3039.0502 3.6608.0502l1.1033-2.7582q.4513-1.1534.9528-2.708.5015-1.5044.8024-2.5074.3009 1.003.8023 2.4573.5015 1.5044 1.003 2.7581l.702 1.8053q.1505.351.301.5517.2005.2006.8023.2507.6018.1003 1.7552.1003 1.1534.0502 3.2596.0502z" aria-label="x" font-weight="700" font-size="50.148" font-family="Yanone Kaffeesatz Bold"/></g></g><g transform="matrix(.35278 0 0 -.35278 -15.438 283.5272)" clip-path="url(#c)" fill="#333"><g aria-label="eria" style="-inkscape-font-specification:YanoneKaffeesatz-Bold" font-weight="700" font-size="41.79" font-family="Yanone Kaffeesatz Bold" clip-path="url(#d)"><path d="M96.9127 794.7562q2.5074 0 3.9283-1.588t1.4209-5.2238q0-1.5045-.1254-3.1343-.1254-1.588-.4597-2.7999-.7522-.1672-1.7134-.2925-.9194-.0836-1.9223-.1672-.9612-.0836-1.9224-.1254-.9194-.0417-1.6716-.0417.0836-2.006.6269-2.9253.585-.8776 2.0895-.8776 1.1283 0 2.2148.2925 1.1284.3343 2.215.8776.2089-.6269.2924-1.5462.0836-.8776.0836-1.588 0-.627-.4597-1.1284-.4597-.4597-1.2955-.794-.794-.3343-1.8805-.5015-1.0865-.1672-2.2985-.1672-1.4208 0-2.6327.418-1.1701.4179-2.0477 1.5044-.8358 1.1283-1.3373 3.0507-.4597 1.9223-.4597 4.8894 0 3.8029.585 6.1013.6269 2.3403 1.6299 3.594 1.003 1.2955 2.3402 1.7134 1.3373.4597 2.8.4597zm-.6268-4.0537q-.9612 0-1.379-1.379-.418-1.3791-.5016-4.2626.8776 0 1.7552.0836.8776.0835 1.3373.2925.1254.376.1672 1.003.0417.6686.0417 1.17 0 1.003-.0835 1.588-.0836.627-.2508.9613-.1671.3343-.4597.4179-.2507.1253-.6268.1253zM104.4767 792.8756q1.0866.7522 2.5492 1.2955 1.5045.585 3.2596.585 1.7134 0 2.2567-.5014.5433-.5015.5433-1.588 0-.418-.0836-1.1702t-.3761-1.5462q-.4597.209-.8358.2507-.3761.0836-.7105.0836-.376 0-.8776-.1671-.5014-.1672-.9193-.5015l-.0418-15.337q0-.3343-.0836-.5014-.0836-.1672-.5433-.2508-.4179-.0418-1.379-.0836h-2.7582zM119.6465 774.279q0-.3343-.0836-.5014-.0836-.1672-.5433-.2508-.4179-.0418-1.4208-.0835h-2.7164v18.8472q0 .7523.209 1.1702.209.4179.7104.585.5433.209 1.4627.2508.9193.0417 2.382.0417zm-4.5551 26.1606q0 1.4626.585 2.3402.6269.9194 1.9642.9194 1.2955 0 1.7551-.6686.4597-.6687.4597-2.382 0-1.7134-.6686-2.6746-.6269-.9194-1.8388-.9194-1.0447 0-1.6716.7104-.585.7105-.585 2.6746zM121.945 792.0816q0 .3761.1253.794.1672.4597.4597.6686.4597.3344 2.0895.7523 1.6298.4596 4.1372.4596 2.8835 0 4.0536-1.1283 1.212-1.1283 1.212-3.97v-1.9642-3.6775q0-1.8805-.0418-3.6357 0-1.7552-.0418-3.3014t-.1254-2.7164q-1.0865-.6268-2.6328-.9611-1.5044-.3762-3.385-.3762-1.17 0-2.2566.209-1.0448.209-1.8806.8776-.794.6686-1.2955 1.9641-.5014 1.2955-.5014 3.4686 0 2.1313.376 3.4686.418 1.379 1.0866 2.1312.6686.7523 1.5462 1.003.8776.2925 1.797.2925.4597 0 1.2537-.1253.8358-.1254 1.4209-.5015v2.8835q0 .8358-.418 1.1701-.376.3761-1.3372.3761-1.1701 0-2.591-.2507-1.379-.2508-2.4238-.6269-.3761.7105-.5015 1.4627-.1254.7522-.1254 1.2537zm7.3968-9.4028q-.209.209-.5433.2508-.2925.0836-.5433.0836-.7104 0-1.0865-.6687-.3761-.6686-.3761-2.6745 0-1.5045.2507-2.1731.2925-.6269 1.0866-.6269.2925 0 .585.0836.3343.1254.5433.3343.0418.3344.0418.9612.0418.6686.0418 1.4209v3.0088z"/></g></g></svg>